<mxfile host="app.diagrams.net" modified="2024-07-07T02:53:13.197Z" agent="Mozilla/5.0 (Windows NT 10.0; Win64; x64) AppleWebKit/537.36 (KHTML, like Gecko) Chrome/126.0.0.0 Safari/537.36" etag="DR1J4H_Ui_Io0Y6jphyF" version="24.6.4" type="device">
  <diagram name="Page-1" id="6HiFrIMbnDVll9OtULYI">
    <mxGraphModel dx="1050" dy="557" grid="1" gridSize="10" guides="1" tooltips="1" connect="1" arrows="1" fold="1" page="1" pageScale="1" pageWidth="827" pageHeight="1169" math="0" shadow="0">
      <root>
        <mxCell id="0" />
        <mxCell id="1" parent="0" />
        <mxCell id="5IlF2TEVyaJYWyZPFnw6-49" style="edgeStyle=orthogonalEdgeStyle;rounded=0;orthogonalLoop=1;jettySize=auto;html=1;entryX=0;entryY=0.5;entryDx=0;entryDy=0;" edge="1" parent="1" source="5IlF2TEVyaJYWyZPFnw6-7" target="5IlF2TEVyaJYWyZPFnw6-9">
          <mxGeometry relative="1" as="geometry" />
        </mxCell>
        <mxCell id="5IlF2TEVyaJYWyZPFnw6-7" value="Client" style="ellipse;shape=cloud;whiteSpace=wrap;html=1;" vertex="1" parent="1">
          <mxGeometry x="10" y="350" width="120" height="80" as="geometry" />
        </mxCell>
        <mxCell id="5IlF2TEVyaJYWyZPFnw6-8" value="" style="swimlane;startSize=0;" vertex="1" parent="1">
          <mxGeometry x="250" y="140" width="630" height="750" as="geometry" />
        </mxCell>
        <mxCell id="5IlF2TEVyaJYWyZPFnw6-12" style="edgeStyle=orthogonalEdgeStyle;rounded=0;orthogonalLoop=1;jettySize=auto;html=1;startArrow=classic;startFill=0;endArrow=none;endFill=0;" edge="1" parent="5IlF2TEVyaJYWyZPFnw6-8" source="5IlF2TEVyaJYWyZPFnw6-9" target="5IlF2TEVyaJYWyZPFnw6-10">
          <mxGeometry relative="1" as="geometry">
            <Array as="points">
              <mxPoint x="115" y="70" />
            </Array>
          </mxGeometry>
        </mxCell>
        <mxCell id="5IlF2TEVyaJYWyZPFnw6-51" style="edgeStyle=orthogonalEdgeStyle;rounded=0;orthogonalLoop=1;jettySize=auto;html=1;entryX=0;entryY=0.5;entryDx=0;entryDy=0;curved=1;" edge="1" parent="5IlF2TEVyaJYWyZPFnw6-8" source="5IlF2TEVyaJYWyZPFnw6-9" target="5IlF2TEVyaJYWyZPFnw6-15">
          <mxGeometry relative="1" as="geometry" />
        </mxCell>
        <mxCell id="5IlF2TEVyaJYWyZPFnw6-9" value="Api Gateway&lt;div&gt;(It has filters to add common headers for every request)&amp;nbsp;&lt;/div&gt;" style="rounded=1;whiteSpace=wrap;html=1;fillColor=#d5e8d4;strokeColor=#82b366;" vertex="1" parent="5IlF2TEVyaJYWyZPFnw6-8">
          <mxGeometry x="20" y="150" width="190" height="60" as="geometry" />
        </mxCell>
        <mxCell id="5IlF2TEVyaJYWyZPFnw6-10" value="cloud-Configuration" style="rounded=1;whiteSpace=wrap;html=1;fillColor=#f5f5f5;fontColor=#333333;strokeColor=#666666;" vertex="1" parent="5IlF2TEVyaJYWyZPFnw6-8">
          <mxGeometry x="55" y="10" width="120" height="60" as="geometry" />
        </mxCell>
        <mxCell id="5IlF2TEVyaJYWyZPFnw6-11" value="eureka service registry" style="rounded=1;whiteSpace=wrap;html=1;fillColor=#dae8fc;strokeColor=#6c8ebf;" vertex="1" parent="5IlF2TEVyaJYWyZPFnw6-8">
          <mxGeometry x="400" y="150" width="120" height="60" as="geometry" />
        </mxCell>
        <mxCell id="5IlF2TEVyaJYWyZPFnw6-14" value="Currency-exchange" style="rounded=1;whiteSpace=wrap;html=1;fillColor=#d0cee2;strokeColor=#56517e;" vertex="1" parent="5IlF2TEVyaJYWyZPFnw6-8">
          <mxGeometry x="63" y="360" width="120" height="60" as="geometry" />
        </mxCell>
        <mxCell id="5IlF2TEVyaJYWyZPFnw6-19" style="edgeStyle=orthogonalEdgeStyle;rounded=0;orthogonalLoop=1;jettySize=auto;html=1;entryX=0.45;entryY=-0.015;entryDx=0;entryDy=0;entryPerimeter=0;startArrow=classic;startFill=0;curved=1;" edge="1" parent="5IlF2TEVyaJYWyZPFnw6-8" source="5IlF2TEVyaJYWyZPFnw6-9" target="5IlF2TEVyaJYWyZPFnw6-44">
          <mxGeometry relative="1" as="geometry" />
        </mxCell>
        <mxCell id="5IlF2TEVyaJYWyZPFnw6-25" value="" style="endArrow=classic;startArrow=classic;html=1;rounded=0;entryX=0;entryY=0.5;entryDx=0;entryDy=0;exitX=1;exitY=0.5;exitDx=0;exitDy=0;" edge="1" parent="5IlF2TEVyaJYWyZPFnw6-8" source="5IlF2TEVyaJYWyZPFnw6-9" target="5IlF2TEVyaJYWyZPFnw6-11">
          <mxGeometry width="50" height="50" relative="1" as="geometry">
            <mxPoint x="130" y="250" as="sourcePoint" />
            <mxPoint x="180" y="200" as="targetPoint" />
            <Array as="points" />
          </mxGeometry>
        </mxCell>
        <mxCell id="5IlF2TEVyaJYWyZPFnw6-26" value="2. From filter take the&lt;div&gt;&amp;nbsp;load balancer name&amp;nbsp;&lt;/div&gt;&lt;div&gt;and search in service registry&lt;/div&gt;" style="text;html=1;align=center;verticalAlign=middle;resizable=0;points=[];autosize=1;strokeColor=none;fillColor=none;" vertex="1" parent="5IlF2TEVyaJYWyZPFnw6-8">
          <mxGeometry x="218" y="127" width="180" height="60" as="geometry" />
        </mxCell>
        <mxCell id="5IlF2TEVyaJYWyZPFnw6-27" value="" style="swimlane;startSize=0;" vertex="1" parent="5IlF2TEVyaJYWyZPFnw6-8">
          <mxGeometry x="368" y="492" width="200" height="200" as="geometry" />
        </mxCell>
        <mxCell id="5IlF2TEVyaJYWyZPFnw6-15" value="Currency-conversion" style="rounded=1;whiteSpace=wrap;html=1;" vertex="1" parent="5IlF2TEVyaJYWyZPFnw6-27">
          <mxGeometry x="46" y="10" width="120" height="60" as="geometry" />
        </mxCell>
        <mxCell id="5IlF2TEVyaJYWyZPFnw6-40" style="edgeStyle=orthogonalEdgeStyle;rounded=0;orthogonalLoop=1;jettySize=auto;html=1;" edge="1" parent="5IlF2TEVyaJYWyZPFnw6-27" source="5IlF2TEVyaJYWyZPFnw6-39" target="5IlF2TEVyaJYWyZPFnw6-15">
          <mxGeometry relative="1" as="geometry" />
        </mxCell>
        <mxCell id="5IlF2TEVyaJYWyZPFnw6-39" value="feign client" style="rounded=1;whiteSpace=wrap;html=1;" vertex="1" parent="5IlF2TEVyaJYWyZPFnw6-27">
          <mxGeometry x="46" y="100" width="120" height="60" as="geometry" />
        </mxCell>
        <mxCell id="5IlF2TEVyaJYWyZPFnw6-53" value="6. return data" style="text;html=1;align=center;verticalAlign=middle;resizable=0;points=[];autosize=1;strokeColor=none;fillColor=none;" vertex="1" parent="5IlF2TEVyaJYWyZPFnw6-27">
          <mxGeometry x="12" y="70" width="90" height="30" as="geometry" />
        </mxCell>
        <mxCell id="5IlF2TEVyaJYWyZPFnw6-41" style="edgeStyle=orthogonalEdgeStyle;rounded=0;orthogonalLoop=1;jettySize=auto;html=1;curved=1;startArrow=classic;startFill=0;endArrow=none;endFill=0;exitX=0.99;exitY=0.39;exitDx=0;exitDy=0;exitPerimeter=0;" edge="1" parent="5IlF2TEVyaJYWyZPFnw6-8" source="5IlF2TEVyaJYWyZPFnw6-39" target="5IlF2TEVyaJYWyZPFnw6-11">
          <mxGeometry relative="1" as="geometry">
            <mxPoint x="586" y="187" as="targetPoint" />
            <mxPoint x="540" y="599" as="sourcePoint" />
            <Array as="points">
              <mxPoint x="610" y="615" />
              <mxPoint x="610" y="490" />
              <mxPoint x="606" y="490" />
              <mxPoint x="606" y="187" />
            </Array>
          </mxGeometry>
        </mxCell>
        <mxCell id="5IlF2TEVyaJYWyZPFnw6-42" style="edgeStyle=orthogonalEdgeStyle;rounded=0;orthogonalLoop=1;jettySize=auto;html=1;entryX=0.5;entryY=1;entryDx=0;entryDy=0;curved=1;startArrow=classic;startFill=0;" edge="1" parent="5IlF2TEVyaJYWyZPFnw6-8" source="5IlF2TEVyaJYWyZPFnw6-39" target="5IlF2TEVyaJYWyZPFnw6-44">
          <mxGeometry relative="1" as="geometry" />
        </mxCell>
        <mxCell id="5IlF2TEVyaJYWyZPFnw6-43" value="Currency-exchange&lt;div&gt;instance 2&lt;/div&gt;" style="rounded=1;whiteSpace=wrap;html=1;fillColor=#d0cee2;strokeColor=#56517e;" vertex="1" parent="5IlF2TEVyaJYWyZPFnw6-8">
          <mxGeometry x="62" y="445" width="120" height="60" as="geometry" />
        </mxCell>
        <mxCell id="5IlF2TEVyaJYWyZPFnw6-44" value="Currency exchange services" style="swimlane;whiteSpace=wrap;html=1;startSize=23;" vertex="1" parent="5IlF2TEVyaJYWyZPFnw6-8">
          <mxGeometry x="32" y="320" width="185" height="200" as="geometry" />
        </mxCell>
        <mxCell id="5IlF2TEVyaJYWyZPFnw6-46" style="edgeStyle=orthogonalEdgeStyle;rounded=0;orthogonalLoop=1;jettySize=auto;html=1;entryX=1;entryY=0.5;entryDx=0;entryDy=0;curved=1;" edge="1" parent="5IlF2TEVyaJYWyZPFnw6-8" source="5IlF2TEVyaJYWyZPFnw6-45" target="5IlF2TEVyaJYWyZPFnw6-10">
          <mxGeometry relative="1" as="geometry" />
        </mxCell>
        <mxCell id="5IlF2TEVyaJYWyZPFnw6-45" value="Git config files&lt;div&gt;for all services&lt;/div&gt;" style="shape=card;whiteSpace=wrap;html=1;fillColor=#dae8fc;strokeColor=#6c8ebf;" vertex="1" parent="5IlF2TEVyaJYWyZPFnw6-8">
          <mxGeometry x="300" y="10" width="80" height="80" as="geometry" />
        </mxCell>
        <mxCell id="5IlF2TEVyaJYWyZPFnw6-47" value="4. Get active service name" style="text;html=1;align=center;verticalAlign=middle;resizable=0;points=[];autosize=1;strokeColor=none;fillColor=none;rotation=-93;" vertex="1" parent="5IlF2TEVyaJYWyZPFnw6-8">
          <mxGeometry x="490" y="300" width="170" height="30" as="geometry" />
        </mxCell>
        <mxCell id="5IlF2TEVyaJYWyZPFnw6-48" value="5. Call service instance&lt;div&gt;which come from&lt;/div&gt;&lt;div&gt;&amp;nbsp;eureka service registry&lt;/div&gt;" style="text;html=1;align=center;verticalAlign=middle;resizable=0;points=[];autosize=1;strokeColor=none;fillColor=none;" vertex="1" parent="5IlF2TEVyaJYWyZPFnw6-8">
          <mxGeometry x="174" y="540" width="150" height="60" as="geometry" />
        </mxCell>
        <mxCell id="5IlF2TEVyaJYWyZPFnw6-52" value="3. redirect the call to registered open service (http://localhost:8100/currency-conversion-feign/from/USD/to/IND/quantity/2)" style="text;html=1;align=center;verticalAlign=middle;whiteSpace=wrap;rounded=0;" vertex="1" parent="5IlF2TEVyaJYWyZPFnw6-8">
          <mxGeometry x="320" y="300" width="170" height="50" as="geometry" />
        </mxCell>
        <mxCell id="5IlF2TEVyaJYWyZPFnw6-54" value="7. return response" style="text;html=1;align=center;verticalAlign=middle;resizable=0;points=[];autosize=1;strokeColor=none;fillColor=none;" vertex="1" parent="5IlF2TEVyaJYWyZPFnw6-8">
          <mxGeometry x="194" y="260" width="120" height="30" as="geometry" />
        </mxCell>
        <mxCell id="5IlF2TEVyaJYWyZPFnw6-50" value="1. Request:&amp;nbsp;&lt;div&gt;http://localhost:8765/&lt;/div&gt;&lt;div&gt;currency-conversion-feign/&lt;/div&gt;&lt;div&gt;from/USD/to/INR/quantity/12&amp;nbsp;&lt;/div&gt;" style="text;html=1;align=center;verticalAlign=middle;resizable=0;points=[];autosize=1;strokeColor=none;fillColor=none;" vertex="1" parent="1">
          <mxGeometry x="20" y="270" width="180" height="70" as="geometry" />
        </mxCell>
        <mxCell id="5IlF2TEVyaJYWyZPFnw6-55" value="8. return response" style="text;html=1;align=center;verticalAlign=middle;resizable=0;points=[];autosize=1;strokeColor=none;fillColor=none;" vertex="1" parent="1">
          <mxGeometry x="120" y="390" width="120" height="30" as="geometry" />
        </mxCell>
        <mxCell id="5IlF2TEVyaJYWyZPFnw6-57" style="edgeStyle=orthogonalEdgeStyle;rounded=0;orthogonalLoop=1;jettySize=auto;html=1;" edge="1" parent="1" source="5IlF2TEVyaJYWyZPFnw6-56">
          <mxGeometry relative="1" as="geometry">
            <mxPoint x="310" y="540" as="targetPoint" />
          </mxGeometry>
        </mxCell>
        <mxCell id="5IlF2TEVyaJYWyZPFnw6-58" style="edgeStyle=orthogonalEdgeStyle;rounded=0;orthogonalLoop=1;jettySize=auto;html=1;entryX=0;entryY=0.5;entryDx=0;entryDy=0;" edge="1" parent="1" source="5IlF2TEVyaJYWyZPFnw6-56" target="5IlF2TEVyaJYWyZPFnw6-43">
          <mxGeometry relative="1" as="geometry" />
        </mxCell>
        <mxCell id="5IlF2TEVyaJYWyZPFnw6-56" value="" style="shape=cylinder3;whiteSpace=wrap;html=1;boundedLbl=1;backgroundOutline=1;size=15;" vertex="1" parent="1">
          <mxGeometry x="150" y="530" width="60" height="80" as="geometry" />
        </mxCell>
      </root>
    </mxGraphModel>
  </diagram>
</mxfile>
